<mxfile host="app.diagrams.net" agent="Mozilla/5.0 (Macintosh; Intel Mac OS X 10_15_7) AppleWebKit/537.36 (KHTML, like Gecko) Chrome/130.0.0.0 Safari/537.36" version="24.8.4">
  <diagram name="第 1 页" id="w13DN-Jho_rv4St1jMjP">
    <mxGraphModel dx="707" dy="385" grid="0" gridSize="10" guides="1" tooltips="1" connect="1" arrows="1" fold="1" page="1" pageScale="1" pageWidth="827" pageHeight="1169" math="0" shadow="0">
      <root>
        <mxCell id="0" />
        <mxCell id="1" parent="0" />
        <mxCell id="mH3gT8QZtKuDU6rffEXB-19" value="" style="edgeStyle=orthogonalEdgeStyle;rounded=0;orthogonalLoop=1;jettySize=auto;html=1;entryX=0.5;entryY=0;entryDx=0;entryDy=0;" parent="1" source="mH3gT8QZtKuDU6rffEXB-1" target="mH3gT8QZtKuDU6rffEXB-2" edge="1">
          <mxGeometry relative="1" as="geometry" />
        </mxCell>
        <mxCell id="mH3gT8QZtKuDU6rffEXB-1" value="ES 降本" style="rounded=1;whiteSpace=wrap;html=1;" parent="1" vertex="1">
          <mxGeometry x="150" y="110" width="90" height="40" as="geometry" />
        </mxCell>
        <mxCell id="mH3gT8QZtKuDU6rffEXB-2" value="调研存储压缩" style="rounded=1;whiteSpace=wrap;html=1;" parent="1" vertex="1">
          <mxGeometry x="150" y="180" width="90" height="40" as="geometry" />
        </mxCell>
        <mxCell id="mH3gT8QZtKuDU6rffEXB-21" value="" style="edgeStyle=orthogonalEdgeStyle;rounded=0;orthogonalLoop=1;jettySize=auto;html=1;" parent="1" source="mH3gT8QZtKuDU6rffEXB-4" target="mH3gT8QZtKuDU6rffEXB-5" edge="1">
          <mxGeometry relative="1" as="geometry" />
        </mxCell>
        <mxCell id="mH3gT8QZtKuDU6rffEXB-4" value="源码研究 &amp;amp; 可行性报告" style="rounded=1;whiteSpace=wrap;html=1;" parent="1" vertex="1">
          <mxGeometry x="150" y="250" width="90" height="40" as="geometry" />
        </mxCell>
        <mxCell id="mH3gT8QZtKuDU6rffEXB-22" value="" style="edgeStyle=orthogonalEdgeStyle;rounded=0;orthogonalLoop=1;jettySize=auto;html=1;entryX=0.5;entryY=1;entryDx=0;entryDy=0;" parent="1" source="mH3gT8QZtKuDU6rffEXB-5" target="mH3gT8QZtKuDU6rffEXB-6" edge="1">
          <mxGeometry relative="1" as="geometry" />
        </mxCell>
        <mxCell id="mH3gT8QZtKuDU6rffEXB-5" value="立项 &amp;amp; 开发测试" style="rounded=1;whiteSpace=wrap;html=1;" parent="1" vertex="1">
          <mxGeometry x="270" y="250" width="90" height="40" as="geometry" />
        </mxCell>
        <mxCell id="mH3gT8QZtKuDU6rffEXB-23" value="" style="edgeStyle=orthogonalEdgeStyle;rounded=0;orthogonalLoop=1;jettySize=auto;html=1;" parent="1" source="mH3gT8QZtKuDU6rffEXB-6" target="mH3gT8QZtKuDU6rffEXB-7" edge="1">
          <mxGeometry relative="1" as="geometry" />
        </mxCell>
        <mxCell id="mH3gT8QZtKuDU6rffEXB-6" value="压测与性能调优" style="rounded=1;whiteSpace=wrap;html=1;" parent="1" vertex="1">
          <mxGeometry x="270" y="180" width="90" height="40" as="geometry" />
        </mxCell>
        <mxCell id="mH3gT8QZtKuDU6rffEXB-24" value="" style="edgeStyle=orthogonalEdgeStyle;rounded=0;orthogonalLoop=1;jettySize=auto;html=1;" parent="1" source="mH3gT8QZtKuDU6rffEXB-7" target="mH3gT8QZtKuDU6rffEXB-8" edge="1">
          <mxGeometry relative="1" as="geometry" />
        </mxCell>
        <mxCell id="mH3gT8QZtKuDU6rffEXB-7" value="线下试用" style="rounded=1;whiteSpace=wrap;html=1;" parent="1" vertex="1">
          <mxGeometry x="270" y="110" width="90" height="40" as="geometry" />
        </mxCell>
        <mxCell id="mH3gT8QZtKuDU6rffEXB-25" value="" style="edgeStyle=orthogonalEdgeStyle;rounded=0;orthogonalLoop=1;jettySize=auto;html=1;entryX=0.5;entryY=0;entryDx=0;entryDy=0;" parent="1" source="mH3gT8QZtKuDU6rffEXB-8" target="mH3gT8QZtKuDU6rffEXB-9" edge="1">
          <mxGeometry relative="1" as="geometry" />
        </mxCell>
        <mxCell id="mH3gT8QZtKuDU6rffEXB-8" value="线上 3 集群试用" style="rounded=1;whiteSpace=wrap;html=1;" parent="1" vertex="1">
          <mxGeometry x="390" y="110" width="90" height="40" as="geometry" />
        </mxCell>
        <mxCell id="mH3gT8QZtKuDU6rffEXB-26" value="" style="edgeStyle=orthogonalEdgeStyle;rounded=0;orthogonalLoop=1;jettySize=auto;html=1;" parent="1" source="mH3gT8QZtKuDU6rffEXB-9" target="mH3gT8QZtKuDU6rffEXB-10" edge="1">
          <mxGeometry relative="1" as="geometry" />
        </mxCell>
        <mxCell id="mH3gT8QZtKuDU6rffEXB-9" value="线上试用报告 &amp;amp;&amp;nbsp;集群与算法的评估" style="rounded=1;whiteSpace=wrap;html=1;" parent="1" vertex="1">
          <mxGeometry x="390" y="180" width="90" height="40" as="geometry" />
        </mxCell>
        <mxCell id="mH3gT8QZtKuDU6rffEXB-27" value="" style="edgeStyle=orthogonalEdgeStyle;rounded=0;orthogonalLoop=1;jettySize=auto;html=1;" parent="1" source="mH3gT8QZtKuDU6rffEXB-10" target="mH3gT8QZtKuDU6rffEXB-11" edge="1">
          <mxGeometry relative="1" as="geometry" />
        </mxCell>
        <mxCell id="mH3gT8QZtKuDU6rffEXB-10" value="线上推广研讨会" style="rounded=1;whiteSpace=wrap;html=1;" parent="1" vertex="1">
          <mxGeometry x="390" y="250" width="90" height="40" as="geometry" />
        </mxCell>
        <mxCell id="mH3gT8QZtKuDU6rffEXB-28" value="" style="edgeStyle=orthogonalEdgeStyle;rounded=0;orthogonalLoop=1;jettySize=auto;html=1;entryX=0.5;entryY=1;entryDx=0;entryDy=0;" parent="1" source="mH3gT8QZtKuDU6rffEXB-11" target="mH3gT8QZtKuDU6rffEXB-12" edge="1">
          <mxGeometry relative="1" as="geometry" />
        </mxCell>
        <mxCell id="mH3gT8QZtKuDU6rffEXB-11" value="压测补充用例与真实大估摸读写场景试用" style="rounded=1;whiteSpace=wrap;html=1;" parent="1" vertex="1">
          <mxGeometry x="510" y="250" width="90" height="40" as="geometry" />
        </mxCell>
        <mxCell id="mH3gT8QZtKuDU6rffEXB-29" value="" style="edgeStyle=orthogonalEdgeStyle;rounded=0;orthogonalLoop=1;jettySize=auto;html=1;entryX=0.5;entryY=1;entryDx=0;entryDy=0;" parent="1" source="mH3gT8QZtKuDU6rffEXB-12" target="mH3gT8QZtKuDU6rffEXB-13" edge="1">
          <mxGeometry relative="1" as="geometry" />
        </mxCell>
        <mxCell id="mH3gT8QZtKuDU6rffEXB-12" value="真实场景试用报告与使用文档" style="rounded=1;whiteSpace=wrap;html=1;" parent="1" vertex="1">
          <mxGeometry x="510" y="180" width="90" height="40" as="geometry" />
        </mxCell>
        <mxCell id="mH3gT8QZtKuDU6rffEXB-30" value="" style="edgeStyle=orthogonalEdgeStyle;rounded=0;orthogonalLoop=1;jettySize=auto;html=1;" parent="1" source="mH3gT8QZtKuDU6rffEXB-13" target="mH3gT8QZtKuDU6rffEXB-15" edge="1">
          <mxGeometry relative="1" as="geometry" />
        </mxCell>
        <mxCell id="mH3gT8QZtKuDU6rffEXB-13" value="线上大规模使用 &amp;amp; 降本" style="rounded=1;whiteSpace=wrap;html=1;" parent="1" vertex="1">
          <mxGeometry x="510" y="110" width="90" height="40" as="geometry" />
        </mxCell>
        <mxCell id="mH3gT8QZtKuDU6rffEXB-15" value="" style="ellipse;html=1;shape=endState;fillColor=#000000;strokeColor=#ff0000;" parent="1" vertex="1">
          <mxGeometry x="540" y="60" width="30" height="30" as="geometry" />
        </mxCell>
        <mxCell id="mH3gT8QZtKuDU6rffEXB-18" value="" style="edgeStyle=orthogonalEdgeStyle;rounded=0;orthogonalLoop=1;jettySize=auto;html=1;entryX=0.5;entryY=0;entryDx=0;entryDy=0;" parent="1" source="mH3gT8QZtKuDU6rffEXB-17" target="mH3gT8QZtKuDU6rffEXB-1" edge="1">
          <mxGeometry relative="1" as="geometry">
            <mxPoint x="195" y="180" as="targetPoint" />
          </mxGeometry>
        </mxCell>
        <mxCell id="mH3gT8QZtKuDU6rffEXB-17" value="" style="strokeWidth=2;html=1;shape=mxgraph.flowchart.start_2;whiteSpace=wrap;" parent="1" vertex="1">
          <mxGeometry x="180" y="60" width="30" height="30" as="geometry" />
        </mxCell>
      </root>
    </mxGraphModel>
  </diagram>
</mxfile>
